jumper10dof24musc.osim_states
version=1
nRows=7
nColumns=69
inDegrees=yes

# SIMM Motion File Header:
name jumper10dof24musc.osim_states
datacolumns 69
datarows 7
otherdata 1
range 0.82978248 0.83176769
endheader
time	pelvis_tilt	pelvis_tx	pelvis_ty	hip_flexion_r	knee_angle_r	ankle_angle_r	hip_flexion_l	knee_angle_l	ankle_angle_l	lumbar_extension	pelvis_tilt_u	pelvis_tx_u	pelvis_ty_u	hip_flexion_r_u	knee_angle_r_u	ankle_angle_r_u	hip_flexion_l_u	knee_angle_l_u	ankle_angle_l_u	lumbar_extension_u	hamstrings_r.activation	hamstrings_r.fiber_length	bifemsh_r.activation	bifemsh_r.fiber_length	glut_max_r.activation	glut_max_r.fiber_length	iliopsoas_r.activation	iliopsoas_r.fiber_length	rect_fem_r.activation	rect_fem_r.fiber_length	vasti_r.activation	vasti_r.fiber_length	gastroc_r.activation	gastroc_r.fiber_length	soleus_r.activation	soleus_r.fiber_length	tib_ant_r.activation	tib_ant_r.fiber_length	ercspn_r.activation	ercspn_r.fiber_length	intobl_r.activation	intobl_r.fiber_length	extobl_r.activation	extobl_r.fiber_length	hamstrings_l.activation	hamstrings_l.fiber_length	bifemsh_l.activation	bifemsh_l.fiber_length	glut_max_l.activation	glut_max_l.fiber_length	iliopsoas_l.activation	iliopsoas_l.fiber_length	rect_fem_l.activation	rect_fem_l.fiber_length	vasti_l.activation	vasti_l.fiber_length	gastroc_l.activation	gastroc_l.fiber_length	soleus_l.activation	soleus_l.fiber_length	tib_ant_l.activation	tib_ant_l.fiber_length	ercspn_l.activation	ercspn_l.fiber_length	intobl_l.activation	intobl_l.fiber_length	extobl_l.activation	extobl_l.fiber_length
      0.82978248	     16.40649381	      0.19269279	      0.93913028	    -39.94121097	      1.09697778	      8.75496521	    -39.94120917	      1.09697831	      8.75496650	     35.79891977	    237.09675896	      0.37368956	     -0.11054853	   -282.00233899	    -18.55558544	     66.50825765	   -282.00234099	    -18.55558146	     66.50826372	      2.87720550	      0.01476522	      0.06724924	      0.01246397	      0.17124837	      0.01462856	      0.04273328	      0.01270068	      0.12302170	      0.01218189	      0.11863323	      0.01179837	      0.06498323	      0.12101398	      0.09599943	      0.01589057	      0.05125923	      0.01502134	      0.07367154	      1.00000000	      0.08821126	      0.01677573	      0.12850389	      0.01507297	      0.15938888	      0.01476522	      0.06724924	      0.01246397	      0.17124837	      0.01462856	      0.04273328	      0.01270068	      0.12302170	      0.01218189	      0.11863323	      0.01179837	      0.06498323	      0.12101398	      0.09599943	      0.01589057	      0.05125923	      0.01502134	      0.07367154	      1.00000000	      0.08821126	      0.01677573	      0.12850389	      0.01507297	      0.15938888
      0.83009024	     16.47948210	      0.19280761	      0.93909610	    -40.02800220	      1.09124073	      8.77547434	    -40.02800040	      1.09124126	      8.77547563	     35.79980224	    237.21343619	      0.37250288	     -0.11159049	   -282.00519196	    -18.72700468	     66.76993196	   -282.00519396	    -18.72700067	     66.76993801	      2.85842049	      0.01474612	      0.06722107	      0.01245415	      0.17124684	      0.01461001	      0.04265360	      0.01268992	      0.12306614	      0.01217321	      0.11865967	      0.01179122	      0.06498773	      0.12069916	      0.09601711	      0.01586687	      0.05127305	      0.01500120	      0.07365653	      1.00000000	      0.08821041	      0.01674840	      0.12850468	      0.01505262	      0.15938934	      0.01474612	      0.06722107	      0.01245415	      0.17124684	      0.01461001	      0.04265360	      0.01268992	      0.12306614	      0.01217321	      0.11865966	      0.01179122	      0.06498773	      0.12069916	      0.09601711	      0.01586687	      0.05127305	      0.01500120	      0.07365653	      1.00000000	      0.08821041	      0.01674840	      0.12850468	      0.01505262	      0.15938934
      0.83039801	     16.55250664	      0.19292207	      0.93906160	    -40.11479471	      1.08545104	      8.79606397	    -40.11479291	      1.08545158	      8.79606527	     35.80067850	    237.33318461	      0.37131348	     -0.11263245	   -282.01190733	    -18.89705503	     67.03097189	   -282.01190934	    -18.89705100	     67.03097793	      2.83588244	      0.01472709	      0.06719304	      0.01244438	      0.17124529	      0.01459154	      0.04257401	      0.01267920	      0.12310103	      0.01216456	      0.11868604	      0.01178410	      0.06499227	      0.12038437	      0.09603483	      0.01584328	      0.05128691	      0.01498113	      0.07364146	      1.00000000	      0.08820957	      0.01672119	      0.12850546	      0.01503234	      0.15938980	      0.01472709	      0.06719304	      0.01244438	      0.17124529	      0.01459154	      0.04257402	      0.01267920	      0.12310103	      0.01216456	      0.11868604	      0.01178410	      0.06499227	      0.12038437	      0.09603483	      0.01584328	      0.05128691	      0.01498113	      0.07364146	      1.00000000	      0.08820957	      0.01672119	      0.12850546	      0.01503234	      0.15938980
      0.83070577	     16.62556768	      0.19303617	      0.93902677	    -40.20158874	      1.07960872	      8.81673426	    -40.20158694	      1.07960926	      8.81673556	     35.80154824	    237.45037700	      0.37012144	     -0.11367916	   -282.01466654	    -19.06923962	     67.29421001	   -282.01466856	    -19.06923556	     67.29421603	      2.81630548	      0.01470814	      0.06716516	      0.01243464	      0.17124372	      0.01457314	      0.04249453	      0.01266852	      0.12314114	      0.01215595	      0.11871235	      0.01177700	      0.06499685	      0.12006961	      0.09605261	      0.01581978	      0.05130081	      0.01496115	      0.07362631	      1.00000000	      0.08820873	      0.01669409	      0.12850624	      0.01501215	      0.15939025	      0.01470814	      0.06716516	      0.01243464	      0.17124372	      0.01457314	      0.04249453	      0.01266852	      0.12314114	      0.01215595	      0.11871235	      0.01177700	      0.06499685	      0.12006961	      0.09605261	      0.01581978	      0.05130081	      0.01496115	      0.07362631	      1.00000000	      0.08820873	      0.01669409	      0.12850624	      0.01501215	      0.15939025
      0.83115673	     16.73268528	      0.19320268	      0.93897516	    -40.32876478	      1.07095234	      8.84716801	    -40.32876298	      1.07095288	      8.84716931	     35.80281173	    237.62399340	      0.36836991	     -0.11521596	   -282.02060815	    -19.32134669	     67.68062193	   -282.02061019	    -19.32134259	     67.68062792	      2.78518859	      0.01468051	      0.06712456	      0.01242045	      0.17124139	      0.01454631	      0.04237825	      0.01265295	      0.12319560	      0.01214339	      0.11875079	      0.01176666	      0.06500365	      0.11960849	      0.09607875	      0.01578552	      0.05132126	      0.01493202	      0.07360399	      1.00000000	      0.08820751	      0.01665459	      0.12850736	      0.01498271	      0.15939090	      0.01468051	      0.06712456	      0.01242045	      0.17124139	      0.01454631	      0.04237825	      0.01265295	      0.12319560	      0.01214339	      0.11875079	      0.01176666	      0.06500365	      0.11960849	      0.09607875	      0.01578552	      0.05132126	      0.01493202	      0.07360398	      1.00000000	      0.08820751	      0.01665459	      0.12850736	      0.01498271	      0.15939090
      0.83146221	     16.80529314	      0.19331503	      0.93893980	    -40.41491754	      1.06502364	      8.86788359	    -40.41491575	      1.06502418	      8.86788489	     35.80365967	    237.73887943	      0.36718017	     -0.11626248	   -282.02034955	    -19.49449695	     67.94486068	   -282.02035159	    -19.49449283	     67.94486665	      2.76725255	      0.01466189	      0.06709724	      0.01241088	      0.17123979	      0.01452823	      0.04229960	      0.01264246	      0.12323962	      0.01213492	      0.11877675	      0.01175969	      0.06500832	      0.11929615	      0.09609651	      0.01576243	      0.05133517	      0.01491238	      0.07358878	      1.00000000	      0.08820669	      0.01662796	      0.12850812	      0.01496287	      0.15939134	      0.01466189	      0.06709724	      0.01241088	      0.17123979	      0.01452823	      0.04229960	      0.01264246	      0.12323962	      0.01213492	      0.11877675	      0.01175969	      0.06500832	      0.11929615	      0.09609652	      0.01576243	      0.05133517	      0.01491238	      0.07358878	      1.00000000	      0.08820669	      0.01662796	      0.12850812	      0.01496287	      0.15939134
      0.83176769	     16.87793644	      0.19342701	      0.93890413	    -40.50107064	      1.05904217	      8.88867986	    -40.50106884	      1.05904271	      8.88868116	     35.80450171	    237.85684764	      0.36598773	     -0.11730898	   -282.02396637	    -19.66627568	     68.20844807	   -282.02396842	    -19.66627153	     68.20845402	      2.74554787	      0.01464334	      0.06707006	      0.01240135	      0.17123817	      0.01451022	      0.04222105	      0.01263201	      0.12327400	      0.01212649	      0.11880265	      0.01175275	      0.06501302	      0.11898385	      0.09611433	      0.01573943	      0.05134912	      0.01489282	      0.07357350	      1.00000000	      0.08820588	      0.01660145	      0.12850888	      0.01494311	      0.15939178	      0.01464334	      0.06707006	      0.01240135	      0.17123817	      0.01451022	      0.04222106	      0.01263201	      0.12327400	      0.01212649	      0.11880265	      0.01175275	      0.06501302	      0.11898385	      0.09611433	      0.01573943	      0.05134912	      0.01489282	      0.07357350	      1.00000000	      0.08820588	      0.01660145	      0.12850888	      0.01494311	      0.15939178
